SourceSans3-Italic.ufo
<glyph name="A" format="2">
	<unicode hex="0041"/>
	<advance width="529"/>
	<outline>
		<contour>
			<point x="-56" y="0" type="line"/>
			<point x="61" y="0" type="line"/>
			<point x="241" y="365" type="line" smooth="yes"/>
			<point x="275" y="433"/>
			<point x="304" y="497"/>
			<point x="336" y="568" type="curve"/>
			<point x="340" y="568" type="line"/>
			<point x="343" y="497"/>
			<point x="348" y="432"/>
			<point x="352" y="365" type="curve" smooth="yes"/>
			<point x="378" y="0" type="line"/>
			<point x="490" y="0" type="line"/>
			<point x="420" y="654" type="line"/>
			<point x="292" y="654" type="line"/>
		</contour>
		<contour>
			<point x="108" y="184" type="line"/>
			<point x="402" y="184" type="line"/>
			<point x="421" y="266" type="line"/>
			<point x="128" y="266" type="line"/>
		</contour>
	</outline>
	<anchor name="aboveUC" x="354" y="676"/>
	<anchor name="belowLC" x="222" y="-22"/>
	<anchor name="ogonekUC" x="422" y="0"/>
</glyph>
<glyph name="C" format="2">
	<unicode hex="0043"/>
	<advance width="559"/>
	<outline>
		<contour>
			<point x="295" y="-12" type="curve" smooth="yes"/>
			<point x="382" y="-12"/>
			<point x="441" y="22"/>
			<point x="489" y="67" type="curve"/>
			<point x="444" y="133" type="line"/>
			<point x="408" y="102"/>
			<point x="364" y="81"/>
			<point x="314" y="81" type="curve" smooth="yes"/>
			<point x="212" y="81"/>
			<point x="167" y="155"/>
			<point x="167" y="265" type="curve" smooth="yes"/>
			<point x="167" y="416"/>
			<point x="261" y="573"/>
			<point x="390" y="573" type="curve" smooth="yes"/>
			<point x="439" y="573"/>
			<point x="477" y="554"/>
			<point x="503" y="513" type="curve"/>
			<point x="564" y="571" type="line"/>
			<point x="533" y="630"/>
			<point x="472" y="666"/>
			<point x="397" y="666" type="curve" smooth="yes"/>
			<point x="200" y="666"/>
			<point x="57" y="473"/>
			<point x="57" y="257" type="curve" smooth="yes"/>
			<point x="57" y="93"/>
			<point x="147" y="-12"/>
		</contour>
	</outline>
	<anchor name="aboverightUC" x="558" y="676"/>
	<anchor name="aboveUC" x="398" y="676"/>
	<anchor name="baseLC" x="272" y="0"/>
	<anchor name="belowLC" x="266" y="-22"/>
</glyph>
<glyph name="L" format="2">
	<unicode hex="004C"/>
	<advance width="481"/>
	<outline>
		<contour>
			<point x="32" y="0" type="line"/>
			<point x="401" y="0" type="line"/>
			<point x="419" y="91" type="line"/>
			<point x="158" y="91" type="line"/>
			<point x="270" y="654" type="line"/>
			<point x="162" y="654" type="line"/>
		</contour>
	</outline>
	<anchor name="aboveUC" x="224" y="676"/>
	<anchor name="belowLC" x="226" y="-22"/>
</glyph>
<glyph name="c" format="2">
	<unicode hex="0063"/>
	<advance width="439"/>
	<outline>
		<contour>
			<point x="220" y="-12" type="curve" smooth="yes"/>
			<point x="291" y="-12"/>
			<point x="343" y="16"/>
			<point x="381" y="51" type="curve"/>
			<point x="336" y="112" type="line"/>
			<point x="312" y="93"/>
			<point x="278" y="75"/>
			<point x="242" y="75" type="curve" smooth="yes"/>
			<point x="177" y="75"/>
			<point x="143" y="118"/>
			<point x="143" y="192" type="curve" smooth="yes"/>
			<point x="143" y="312"/>
			<point x="221" y="416"/>
			<point x="308" y="416" type="curve" smooth="yes"/>
			<point x="343" y="416"/>
			<point x="364" y="404"/>
			<point x="386" y="382" type="curve"/>
			<point x="444" y="443" type="line"/>
			<point x="420" y="475"/>
			<point x="376" y="503"/>
			<point x="314" y="503" type="curve" smooth="yes"/>
			<point x="162" y="503"/>
			<point x="33" y="364"/>
			<point x="33" y="188" type="curve" smooth="yes"/>
			<point x="33" y="61"/>
			<point x="112" y="-12"/>
		</contour>
	</outline>
	<anchor name="aboveLC" x="300" y="514"/>
	<anchor name="aboverightLC" x="440" y="514"/>
	<anchor name="baseLC" x="206" y="0"/>
	<anchor name="belowLC" x="200" y="-22"/>
</glyph>
<glyph name="t" format="2">
	<unicode hex="0074"/>
	<advance width="346"/>
	<outline>
		<contour>
			<point x="192" y="-10" type="curve" smooth="yes"/>
			<point x="236" y="-10"/>
			<point x="274" y="2"/>
			<point x="298" y="14" type="curve"/>
			<point x="276" y="86" type="line"/>
			<point x="262" y="80"/>
			<point x="246" y="76"/>
			<point x="228" y="76" type="curve" smooth="yes"/>
			<point x="192" y="76"/>
			<point x="175" y="94"/>
			<point x="175" y="129" type="curve" smooth="yes"/>
			<point x="175" y="142"/>
			<point x="176" y="152"/>
			<point x="178" y="164" type="curve" smooth="yes"/>
			<point x="228" y="406" type="line"/>
			<point x="348" y="406" type="line"/>
			<point x="366" y="491" type="line"/>
			<point x="248" y="491" type="line"/>
			<point x="278" y="644" type="line"/>
			<point x="188" y="644" type="line"/>
			<point x="144" y="491" type="line"/>
			<point x="70" y="486" type="line"/>
			<point x="52" y="406" type="line"/>
			<point x="122" y="406" type="line"/>
			<point x="72" y="168" type="line" smooth="yes"/>
			<point x="68" y="148"/>
			<point x="66" y="130"/>
			<point x="66" y="111" type="curve" smooth="yes"/>
			<point x="66" y="42"/>
			<point x="102" y="-10"/>
		</contour>
	</outline>
	<anchor name="aboveLC" x="236" y="650"/>
	<anchor name="aboverightLC" x="356" y="514"/>
	<anchor name="baseLC" x="178" y="0"/>
	<anchor name="belowLC" x="168" y="-22"/>
</glyph>
<glyph name="w" format="2">
	<unicode hex="0077"/>
	<advance width="728"/>
	<outline>
		<contour>
			<point x="100" y="0" type="line"/>
			<point x="236" y="0" type="line"/>
			<point x="332" y="232" type="line" smooth="yes"/>
			<point x="353" y="282"/>
			<point x="366" y="328"/>
			<point x="385" y="392" type="curve"/>
			<point x="389" y="392" type="line"/>
			<point x="386" y="328"/>
			<point x="384" y="282"/>
			<point x="384" y="232" type="curve"/>
			<point x="388" y="0" type="line"/>
			<point x="522" y="0" type="line"/>
			<point x="740" y="492" type="line"/>
			<point x="634" y="492" type="line"/>
			<point x="526" y="228" type="line" smooth="yes"/>
			<point x="509" y="186"/>
			<point x="494" y="134"/>
			<point x="476" y="86" type="curve"/>
			<point x="472" y="86" type="line"/>
			<point x="472" y="134"/>
			<point x="472" y="186"/>
			<point x="472" y="228" type="curve"/>
			<point x="462" y="492" type="line"/>
			<point x="350" y="492" type="line"/>
			<point x="240" y="228" type="line" smooth="yes"/>
			<point x="223" y="186"/>
			<point x="204" y="134"/>
			<point x="188" y="86" type="curve"/>
			<point x="184" y="86" type="line"/>
			<point x="184" y="134"/>
			<point x="186" y="186"/>
			<point x="185" y="228" type="curve" smooth="yes"/>
			<point x="178" y="492" type="line"/>
			<point x="70" y="492" type="line"/>
		</contour>
	</outline>
	<anchor name="aboveLC" x="412" y="514"/>
	<anchor name="aboverightLC" x="700" y="514"/>
	<anchor name="belowLC" x="310" y="-22"/>
</glyph>
<glyph name="Eth" format="2">
	<unicode hex="00D0"/>
	<advance width="628"/>
	<outline>
		<contour>
			<point x="38" y="300" type="line"/>
			<point x="360" y="300" type="line"/>
			<point x="376" y="382" type="line"/>
			<point x="128" y="382" type="line"/>
			<point x="56" y="378" type="line"/>
		</contour>
		<component base="D" xOffset="20"/>
	</outline>
	<anchor name="aboveUC" x="394" y="676"/>
	<anchor name="belowLC" x="278" y="-22"/>
</glyph>
<glyph name="eth" format="2">
	<unicode hex="00F0"/>
	<advance width="539"/>
	<outline>
		<contour>
			<point x="221" y="-12" type="curve" smooth="yes"/>
			<point x="378" y="-12"/>
			<point x="490" y="140"/>
			<point x="490" y="362" type="curve" smooth="yes"/>
			<point x="490" y="539"/>
			<point x="392" y="658"/>
			<point x="234" y="735" type="curve"/>
			<point x="181" y="672" type="line"/>
			<point x="328" y="594"/>
			<point x="384" y="503"/>
			<point x="384" y="350" type="curve" smooth="yes"/>
			<point x="384" y="187"/>
			<point x="321" y="75"/>
			<point x="235" y="75" type="curve" smooth="yes"/>
			<point x="177" y="75"/>
			<point x="143" y="126"/>
			<point x="143" y="186" type="curve" smooth="yes"/>
			<point x="143" y="275"/>
			<point x="195" y="368"/>
			<point x="281" y="368" type="curve" smooth="yes"/>
			<point x="329" y="368"/>
			<point x="363" y="333"/>
			<point x="384" y="296" type="curve"/>
			<point x="401" y="357" type="line"/>
			<point x="378" y="417"/>
			<point x="330" y="451"/>
			<point x="273" y="451" type="curve" smooth="yes"/>
			<point x="129" y="451"/>
			<point x="37" y="312"/>
			<point x="37" y="177" type="curve" smooth="yes"/>
			<point x="37" y="64"/>
			<point x="112" y="-12"/>
		</contour>
		<contour>
			<point x="172" y="482" type="line"/>
			<point x="536" y="630" type="line"/>
			<point x="506" y="704" type="line"/>
			<point x="142" y="556" type="line"/>
		</contour>
	</outline>
	<anchor name="aboveUC" x="374" y="726"/>
	<anchor name="belowLC" x="216" y="-22"/>
</glyph>
<glyph name="eogonek" format="2">
	<unicode hex="0119"/>
	<advance width="488"/>
	<outline>
		<contour>
			<point x="256" y="-217" type="curve" smooth="yes"/>
			<point x="296" y="-217"/>
			<point x="330" y="-203"/>
			<point x="359" y="-181" type="curve"/>
			<point x="336" y="-132" type="line"/>
			<point x="323" y="-140"/>
			<point x="312" y="-145"/>
			<point x="296" y="-145" type="curve" smooth="yes"/>
			<point x="275" y="-145"/>
			<point x="259" y="-132"/>
			<point x="259" y="-109" type="curve" smooth="yes"/>
			<point x="259" y="-65"/>
			<point x="295" y="-19"/>
			<point x="398" y="42" type="curve"/>
			<point x="360" y="108" type="line"/>
			<point x="332" y="88"/>
			<point x="296" y="74"/>
			<point x="258" y="74" type="curve" smooth="yes"/>
			<point x="186" y="74"/>
			<point x="140" y="102"/>
			<point x="140" y="214" type="curve" smooth="yes"/>
			<point x="140" y="348"/>
			<point x="228" y="418"/>
			<point x="288" y="418" type="curve" smooth="yes"/>
			<point x="348" y="418"/>
			<point x="368" y="376"/>
			<point x="368" y="328" type="curve" smooth="yes"/>
			<point x="368" y="314"/>
			<point x="368" y="308"/>
			<point x="364" y="294" type="curve"/>
			<point x="120" y="294" type="line"/>
			<point x="111" y="214" type="line"/>
			<point x="438" y="214" type="line"/>
			<point x="448" y="240"/>
			<point x="458" y="278"/>
			<point x="458" y="322" type="curve" smooth="yes"/>
			<point x="458" y="424"/>
			<point x="416" y="503"/>
			<point x="300" y="503" type="curve" smooth="yes"/>
			<point x="172" y="503"/>
			<point x="33" y="379"/>
			<point x="33" y="196" type="curve" smooth="yes"/>
			<point x="33" y="64"/>
			<point x="112" y="-12"/>
			<point x="236" y="-12" type="curve"/>
			<point x="248" y="-12"/>
			<point x="263" y="-10"/>
			<point x="274" y="-7" type="curve"/>
			<point x="265" y="2" type="line"/>
			<point x="210" y="-38"/>
			<point x="170" y="-86"/>
			<point x="170" y="-139" type="curve" smooth="yes"/>
			<point x="170" y="-190"/>
			<point x="206" y="-217"/>
		</contour>
	</outline>
	<anchor name="aboveLC" x="312" y="514"/>
	<anchor name="belowLC" x="194" y="-198"/>
</glyph>
<glyph name="hbar" format="2">
	<unicode hex="0127"/>
	<advance width="543"/>
	<outline>
		<contour>
			<point x="30" y="0" type="line"/>
			<point x="138" y="0" type="line"/>
			<point x="196" y="296" type="line"/>
			<point x="248" y="348"/>
			<point x="286" y="372"/>
			<point x="321" y="372" type="curve" smooth="yes"/>
			<point x="362" y="372"/>
			<point x="382" y="351"/>
			<point x="382" y="309" type="curve" smooth="yes"/>
			<point x="382" y="294"/>
			<point x="379" y="280"/>
			<point x="374" y="257" type="curve" smooth="yes"/>
			<point x="322" y="0" type="line"/>
			<point x="429" y="0" type="line"/>
			<point x="484" y="271" type="line" smooth="yes"/>
			<point x="489" y="296"/>
			<point x="492" y="317"/>
			<point x="492" y="340" type="curve" smooth="yes"/>
			<point x="492" y="418"/>
			<point x="457" y="464"/>
			<point x="375" y="464" type="curve" smooth="yes"/>
			<point x="316" y="464"/>
			<point x="263" y="431"/>
			<point x="214" y="388" type="curve"/>
			<point x="210" y="388" type="line"/>
			<point x="229" y="459" type="line"/>
			<point x="279" y="706" type="line"/>
			<point x="172" y="706" type="line"/>
		</contour>
		<contour>
			<point x="62" y="542" type="line"/>
			<point x="416" y="542" type="line"/>
			<point x="432" y="622" type="line"/>
			<point x="156" y="622" type="line"/>
			<point x="76" y="616" type="line"/>
		</contour>
	</outline>
</glyph>
<glyph name="dotlessi" format="2">
	<unicode hex="0131"/>
	<advance width="251"/>
	<outline>
		<contour>
			<point x="22" y="0" type="line"/>
			<point x="130" y="0" type="line"/>
			<point x="228" y="491" type="line"/>
			<point x="121" y="491" type="line"/>
		</contour>
	</outline>
	<anchor name="aboveLC" x="178" y="514"/>
	<anchor name="belowLC" x="72" y="-22"/>
	<anchor name="ogonekLC" x="72" y="0"/>
</glyph>
<glyph name="Tbar" format="2">
	<unicode hex="0166"/>
	<advance width="521"/>
	<outline>
		<contour>
			<point x="92" y="282" type="line"/>
			<point x="442" y="282" type="line"/>
			<point x="458" y="364" type="line"/>
			<point x="200" y="364" type="line"/>
			<point x="108" y="358" type="line"/>
		</contour>
		<component base="T"/>
	</outline>
	<anchor name="aboveUC" x="342" y="676"/>
	<anchor name="belowLC" x="208" y="-22"/>
</glyph>
<glyph name="tbar" format="2">
	<unicode hex="0167"/>
	<advance width="346"/>
	<outline>
		<contour>
			<point x="12" y="210" type="line"/>
			<point x="308" y="210" type="line"/>
			<point x="324" y="290" type="line"/>
			<point x="100" y="290" type="line"/>
			<point x="26" y="284" type="line"/>
		</contour>
		<component base="t"/>
	</outline>
	<anchor name="aboveLC" x="236" y="650"/>
	<anchor name="belowLC" x="168" y="-22"/>
</glyph>
<glyph name="bstroke" format="2">
	<unicode hex="0180"/>
	<advance width="550"/>
	<outline>
		<contour>
			<point x="258" y="-12" type="curve" smooth="yes"/>
			<point x="388" y="-12"/>
			<point x="510" y="122"/>
			<point x="510" y="289" type="curve" smooth="yes"/>
			<point x="510" y="402"/>
			<point x="456" y="464"/>
			<point x="370" y="464" type="curve" smooth="yes"/>
			<point x="315" y="464"/>
			<point x="262" y="436"/>
			<point x="216" y="399" type="curve"/>
			<point x="214" y="399" type="line"/>
			<point x="237" y="493" type="line"/>
			<point x="279" y="706" type="line"/>
			<point x="172" y="706" type="line"/>
			<point x="30" y="0" type="line"/>
			<point x="119" y="0" type="line"/>
			<point x="140" y="57" type="line"/>
			<point x="142" y="57" type="line"/>
			<point x="164" y="15"/>
			<point x="207" y="-12"/>
		</contour>
		<contour>
			<point x="251" y="76" type="curve" smooth="yes"/>
			<point x="218" y="76"/>
			<point x="186" y="94"/>
			<point x="165" y="136" type="curve"/>
			<point x="200" y="305" type="line"/>
			<point x="238" y="352"/>
			<point x="288" y="376"/>
			<point x="326" y="376" type="curve" smooth="yes"/>
			<point x="371" y="376"/>
			<point x="399" y="343"/>
			<point x="399" y="274" type="curve" smooth="yes"/>
			<point x="399" y="169"/>
			<point x="329" y="76"/>
		</contour>
		<contour>
			<point x="62" y="542" type="line"/>
			<point x="416" y="542" type="line"/>
			<point x="432" y="622" type="line"/>
			<point x="156" y="622" type="line"/>
			<point x="76" y="616" type="line"/>
		</contour>
	</outline>
</glyph>
<glyph name="clickalveolar" format="2">
	<unicode hex="01C2"/>
	<advance width="387"/>
	<outline>
		<contour>
			<point x="10" y="224" type="line"/>
			<point x="360" y="224" type="line"/>
			<point x="378" y="306" type="line"/>
			<point x="102" y="306" type="line"/>
			<point x="26" y="300" type="line"/>
		</contour>
		<contour>
			<point x="46" y="398" type="line"/>
			<point x="396" y="398" type="line"/>
			<point x="414" y="480" type="line"/>
			<point x="138" y="480" type="line"/>
			<point x="62" y="474" type="line"/>
		</contour>
		<component base="l.a" xOffset="68"/>
	</outline>
	<anchor name="aboveUC" x="284" y="726"/>
	<anchor name="belowLC" x="132" y="-22"/>
</glyph>
<glyph name="Gstroke" format="2">
	<unicode hex="01E4"/>
	<advance width="640"/>
	<outline>
		<contour>
			<point x="307" y="-12" type="curve" smooth="yes"/>
			<point x="386" y="-12"/>
			<point x="454" y="16"/>
			<point x="502" y="55" type="curve"/>
			<point x="561" y="353" type="line"/>
			<point x="466" y="353" type="line"/>
			<point x="416" y="111" type="line"/>
			<point x="394" y="93"/>
			<point x="362" y="80"/>
			<point x="325" y="80" type="curve" smooth="yes"/>
			<point x="211" y="80"/>
			<point x="167" y="157"/>
			<point x="167" y="265" type="curve" smooth="yes"/>
			<point x="167" y="417"/>
			<point x="262" y="573"/>
			<point x="400" y="573" type="curve" smooth="yes"/>
			<point x="451" y="573"/>
			<point x="491" y="551"/>
			<point x="518" y="509" type="curve"/>
			<point x="580" y="572" type="line"/>
			<point x="546" y="629"/>
			<point x="485" y="666"/>
			<point x="406" y="666" type="curve" smooth="yes"/>
			<point x="200" y="666"/>
			<point x="57" y="474"/>
			<point x="57" y="257" type="curve" smooth="yes"/>
			<point x="57" y="91"/>
			<point x="148" y="-12"/>
		</contour>
		<contour>
			<point x="316" y="198" type="line"/>
			<point x="602" y="198" type="line"/>
			<point x="618" y="280" type="line"/>
			<point x="454" y="280" type="line"/>
			<point x="332" y="274" type="line"/>
		</contour>
	</outline>
	<anchor name="aboveUC" x="402" y="676"/>
	<anchor name="belowLC" x="288" y="-22"/>
</glyph>
<glyph name="Ubar" format="2">
	<unicode hex="0244"/>
	<advance width="670"/>
	<outline>
		<contour>
			<point x="36" y="318" type="line"/>
			<point x="662" y="318" type="line"/>
			<point x="676" y="400" type="line"/>
			<point x="138" y="400" type="line"/>
			<point x="52" y="394" type="line"/>
		</contour>
		<component base="U" xOffset="20"/>
	</outline>
	<anchor name="aboveUC" x="418" y="676"/>
	<anchor name="belowLC" x="290" y="-22"/>
</glyph>
<glyph name="eopen" format="2">
	<unicode hex="025B"/>
	<advance width="430"/>
	<outline>
		<contour>
			<point x="192" y="-12" type="curve" smooth="yes"/>
			<point x="266" y="-12"/>
			<point x="314" y="4"/>
			<point x="378" y="44" type="curve"/>
			<point x="342" y="110" type="line"/>
			<point x="296" y="84"/>
			<point x="258" y="74"/>
			<point x="220" y="74" type="curve" smooth="yes"/>
			<point x="165" y="74"/>
			<point x="124" y="95"/>
			<point x="124" y="134" type="curve" smooth="yes"/>
			<point x="124" y="183"/>
			<point x="168" y="214"/>
			<point x="246" y="214" type="curve" smooth="yes"/>
			<point x="312" y="214" type="line"/>
			<point x="328" y="294" type="line"/>
			<point x="276" y="294" type="line" smooth="yes"/>
			<point x="220" y="294"/>
			<point x="194" y="315"/>
			<point x="194" y="348" type="curve" smooth="yes"/>
			<point x="194" y="390"/>
			<point x="232" y="418"/>
			<point x="288" y="418" type="curve" smooth="yes"/>
			<point x="326" y="418"/>
			<point x="356" y="410"/>
			<point x="388" y="388" type="curve"/>
			<point x="432" y="454" type="line"/>
			<point x="392" y="484"/>
			<point x="336" y="503"/>
			<point x="280" y="503" type="curve" smooth="yes"/>
			<point x="167" y="503"/>
			<point x="86" y="444"/>
			<point x="86" y="358" type="curve" smooth="yes"/>
			<point x="86" y="312"/>
			<point x="114" y="278"/>
			<point x="156" y="262" type="curve"/>
			<point x="156" y="258" type="line"/>
			<point x="86" y="242"/>
			<point x="20" y="199"/>
			<point x="20" y="112" type="curve" smooth="yes"/>
			<point x="20" y="30"/>
			<point x="98" y="-12"/>
		</contour>
	</outline>
	<anchor name="aboveLC" x="292" y="514"/>
	<anchor name="baseLC" x="188" y="0"/>
	<anchor name="belowLC" x="184" y="-22"/>
	<anchor name="ogonekLC" x="188" y="0"/>
</glyph>
<glyph name="dotlessjstroke" format="2">
	<unicode hex="025F"/>
	<advance width="316"/>
	<outline>
		<contour>
			<point x="12" y="214" type="line"/>
			<point x="292" y="214" type="line"/>
			<point x="308" y="294" type="line"/>
			<point x="116" y="294" type="line"/>
			<point x="26" y="288" type="line"/>
		</contour>
		<component base="dotlessj" xOffset="32"/>
	</outline>
	<anchor name="aboveLC" x="210" y="514"/>
	<anchor name="belowLC" x="22" y="-198"/>
</glyph>
<glyph name="lbelt" format="2">
	<unicode hex="026C"/>
	<advance width="360"/>
	<outline>
		<contour>
			<point x="138" y="298" type="curve" smooth="yes"/>
			<point x="356" y="298" type="line"/>
			<point x="370" y="378" type="line"/>
			<point x="132" y="378" type="line" smooth="yes"/>
			<point x="99" y="378"/>
			<point x="84" y="390"/>
			<point x="84" y="408" type="curve" smooth="yes"/>
			<point x="84" y="424"/>
			<point x="94" y="436"/>
			<point x="113" y="436" type="curve" smooth="yes"/>
			<point x="141" y="436"/>
			<point x="154" y="408"/>
			<point x="154" y="378" type="curve"/>
			<point x="196" y="392" type="line"/>
			<point x="196" y="435"/>
			<point x="177" y="496"/>
			<point x="106" y="496" type="curve" smooth="yes"/>
			<point x="50" y="496"/>
			<point x="16" y="450"/>
			<point x="16" y="406" type="curve" smooth="yes"/>
			<point x="16" y="345"/>
			<point x="58" y="298"/>
		</contour>
		<component base="l.a" xOffset="56"/>
	</outline>
	<anchor name="aboveUC" x="274" y="726"/>
	<anchor name="belowLC" x="134" y="-22"/>
</glyph>
<glyph name="obar" format="2">
	<unicode hex="0275"/>
	<advance width="524"/>
	<outline>
		<contour>
			<point x="217" y="-12" type="curve" smooth="yes"/>
			<point x="352" y="-12"/>
			<point x="488" y="116"/>
			<point x="488" y="304" type="curve" smooth="yes"/>
			<point x="488" y="426"/>
			<point x="416" y="503"/>
			<point x="304" y="503" type="curve" smooth="yes"/>
			<point x="171" y="503"/>
			<point x="34" y="376"/>
			<point x="34" y="188" type="curve" smooth="yes"/>
			<point x="34" y="66"/>
			<point x="106" y="-12"/>
		</contour>
		<contour>
			<point x="228" y="74" type="curve" smooth="yes"/>
			<point x="168" y="74"/>
			<point x="138" y="118"/>
			<point x="138" y="192" type="curve" smooth="yes"/>
			<point x="138" y="316"/>
			<point x="210" y="418"/>
			<point x="294" y="418" type="curve" smooth="yes"/>
			<point x="356" y="418"/>
			<point x="384" y="374"/>
			<point x="384" y="300" type="curve" smooth="yes"/>
			<point x="384" y="176"/>
			<point x="312" y="74"/>
		</contour>
		<contour>
			<point x="120" y="214" type="line"/>
			<point x="388" y="214" type="line"/>
			<point x="404" y="294" type="line"/>
			<point x="136" y="294" type="line"/>
		</contour>
	</outline>
	<anchor name="aboveLC" x="316" y="514"/>
	<anchor name="belowLC" x="196" y="-22"/>
	<anchor name="ogonekLC" x="202" y="0"/>
</glyph>
<glyph name="clickbilabial" format="2">
	<unicode hex="0298"/>
	<advance width="496"/>
	<outline>
		<contour>
			<point x="193" y="-12" type="curve" smooth="yes"/>
			<point x="372" y="-12"/>
			<point x="490" y="244"/>
			<point x="490" y="506" type="curve" smooth="yes"/>
			<point x="490" y="656"/>
			<point x="426" y="718"/>
			<point x="333" y="718" type="curve" smooth="yes"/>
			<point x="154" y="718"/>
			<point x="36" y="462"/>
			<point x="36" y="200" type="curve" smooth="yes"/>
			<point x="36" y="52"/>
			<point x="100" y="-12"/>
		</contour>
		<contour>
			<point x="211" y="80" type="curve" smooth="yes"/>
			<point x="170" y="80"/>
			<point x="138" y="110"/>
			<point x="138" y="207" type="curve" smooth="yes"/>
			<point x="138" y="401"/>
			<point x="219" y="626"/>
			<point x="316" y="626" type="curve" smooth="yes"/>
			<point x="356" y="626"/>
			<point x="388" y="598"/>
			<point x="388" y="500" type="curve" smooth="yes"/>
			<point x="388" y="306"/>
			<point x="308" y="80"/>
		</contour>
		<contour>
			<point x="254" y="286" type="curve" smooth="yes"/>
			<point x="296" y="286"/>
			<point x="332" y="320"/>
			<point x="332" y="368" type="curve" smooth="yes"/>
			<point x="332" y="404"/>
			<point x="306" y="424"/>
			<point x="276" y="424" type="curve" smooth="yes"/>
			<point x="234" y="424"/>
			<point x="198" y="390"/>
			<point x="198" y="342" type="curve" smooth="yes"/>
			<point x="198" y="306"/>
			<point x="224" y="286"/>
		</contour>
	</outline>
	<anchor name="aboveUC" x="348" y="726"/>
	<anchor name="belowLC" x="190" y="-22"/>
</glyph>
<glyph name="glottalstopstrokereversed" format="2">
	<unicode hex="02A2"/>
	<advance width="430"/>
	<outline>
		<contour>
			<point x="44" y="126" type="line"/>
			<point x="376" y="126" type="line"/>
			<point x="392" y="206" type="line"/>
			<point x="152" y="206" type="line"/>
			<point x="58" y="200" type="line"/>
		</contour>
		<component base="glottalstopreversed" xOffset="4"/>
	</outline>
	<anchor name="aboveUC" x="328" y="726"/>
	<anchor name="belowLC" x="186" y="-22"/>
</glyph>
<glyph name="Euro" format="2">
	<unicode hex="20AC"/>
	<advance width="494"/>
	<outline>
		<contour>
			<point x="295" y="-12" type="curve" smooth="yes"/>
			<point x="353" y="-12"/>
			<point x="408" y="14"/>
			<point x="457" y="61" type="curve"/>
			<point x="416" y="124" type="line"/>
			<point x="386" y="95"/>
			<point x="348" y="75"/>
			<point x="308" y="75" type="curve" smooth="yes"/>
			<point x="234" y="75"/>
			<point x="193" y="136"/>
			<point x="193" y="254" type="curve" smooth="yes"/>
			<point x="193" y="418"/>
			<point x="273" y="561"/>
			<point x="382" y="561" type="curve" smooth="yes"/>
			<point x="427" y="561"/>
			<point x="456" y="533"/>
			<point x="472" y="500" type="curve"/>
			<point x="536" y="552" type="line"/>
			<point x="511" y="605"/>
			<point x="458" y="648"/>
			<point x="389" y="648" type="curve" smooth="yes"/>
			<point x="230" y="648"/>
			<point x="86" y="478"/>
			<point x="86" y="247" type="curve" smooth="yes"/>
			<point x="86" y="76"/>
			<point x="170" y="-12"/>
		</contour>
		<contour>
			<point x="24" y="222" type="line"/>
			<point x="376" y="222" type="line"/>
			<point x="390" y="286" type="line"/>
			<point x="104" y="286" type="line"/>
			<point x="36" y="280" type="line"/>
		</contour>
		<contour>
			<point x="48" y="350" type="line"/>
			<point x="438" y="350" type="line"/>
			<point x="452" y="414" type="line"/>
			<point x="128" y="414" type="line"/>
			<point x="60" y="408" type="line"/>
		</contour>
	</outline>
</glyph>
<glyph name="W.sups" format="2">
	<advance width="517"/>
	<outline>
		<contour>
			<point x="120" y="384" type="line"/>
			<point x="226" y="384" type="line"/>
			<point x="312" y="604" type="line" smooth="yes"/>
			<point x="324" y="636"/>
			<point x="336" y="666"/>
			<point x="346" y="712" type="curve"/>
			<point x="350" y="712" type="line"/>
			<point x="346" y="664"/>
			<point x="344" y="636"/>
			<point x="344" y="604" type="curve" smooth="yes"/>
			<point x="346" y="384" type="line"/>
			<point x="454" y="384" type="line"/>
			<point x="618" y="816" type="line"/>
			<point x="540" y="816" type="line"/>
			<point x="460" y="604" type="line"/>
			<point x="444" y="556"/>
			<point x="428" y="509"/>
			<point x="414" y="458" type="curve"/>
			<point x="410" y="458" type="line"/>
			<point x="414" y="509"/>
			<point x="414" y="556"/>
			<point x="414" y="604" type="curve"/>
			<point x="412" y="816" type="line"/>
			<point x="330" y="816" type="line"/>
			<point x="240" y="604" type="line" smooth="yes"/>
			<point x="220" y="556"/>
			<point x="206" y="512"/>
			<point x="190" y="458" type="curve"/>
			<point x="186" y="458" type="line"/>
			<point x="192" y="512"/>
			<point x="196" y="556"/>
			<point x="198" y="604" type="curve"/>
			<point x="206" y="816" type="line"/>
			<point x="123" y="816" type="line"/>
		</contour>
	</outline>
</glyph>
<glyph name="aturned.b" format="2">
	<advance width="503"/>
	<outline>
		<contour>
			<point x="224" y="-12" type="curve" smooth="yes"/>
			<point x="290" y="-12"/>
			<point x="358" y="14"/>
			<point x="420" y="50" type="curve"/>
			<point x="388" y="118" type="line"/>
			<point x="335" y="89"/>
			<point x="292" y="74"/>
			<point x="247" y="74" type="curve" smooth="yes"/>
			<point x="191" y="74"/>
			<point x="166" y="98"/>
			<point x="166" y="150" type="curve" smooth="yes"/>
			<point x="166" y="160"/>
			<point x="168" y="168"/>
			<point x="170" y="180" type="curve"/>
			<point x="382" y="200"/>
			<point x="486" y="278"/>
			<point x="486" y="400" type="curve" smooth="yes"/>
			<point x="486" y="464"/>
			<point x="444" y="503"/>
			<point x="378" y="503" type="curve" smooth="yes"/>
			<point x="316" y="503"/>
			<point x="258" y="468"/>
			<point x="214" y="428" type="curve"/>
			<point x="210" y="428" type="line"/>
			<point x="210" y="430"/>
			<point x="210" y="434"/>
			<point x="210" y="436" type="curve" smooth="yes"/>
			<point x="210" y="476"/>
			<point x="186" y="503"/>
			<point x="138" y="503" type="curve" smooth="yes"/>
			<point x="114" y="503"/>
			<point x="94" y="500"/>
			<point x="76" y="494" type="curve"/>
			<point x="74" y="413" type="line"/>
			<point x="83" y="416"/>
			<point x="87" y="416"/>
			<point x="90" y="416" type="curve" smooth="yes"/>
			<point x="99" y="416"/>
			<point x="104" y="410"/>
			<point x="104" y="400" type="curve" smooth="yes"/>
			<point x="104" y="396"/>
			<point x="104" y="391"/>
			<point x="102" y="382" type="curve" smooth="yes"/>
			<point x="68" y="208" type="line" smooth="yes"/>
			<point x="63" y="184"/>
			<point x="60" y="164"/>
			<point x="60" y="144" type="curve" smooth="yes"/>
			<point x="60" y="36"/>
			<point x="120" y="-12"/>
		</contour>
		<contour>
			<point x="184" y="256" type="curve"/>
			<point x="204" y="358" type="line"/>
			<point x="246" y="396"/>
			<point x="288" y="418"/>
			<point x="326" y="418" type="curve" smooth="yes"/>
			<point x="357" y="418"/>
			<point x="380" y="400"/>
			<point x="380" y="364" type="curve" smooth="yes"/>
			<point x="380" y="302"/>
			<point x="312" y="268"/>
		</contour>
	</outline>
	<anchor name="aboveLC" x="316" y="514"/>
	<anchor name="belowLC" x="226" y="-22"/>
	<anchor name="ogonekLC" x="274" y="0"/>
</glyph>
<glyph name="eogonek.d" format="2">
	<advance width="488"/>
	<outline>
		<contour>
			<point x="191" y="-217" type="curve" smooth="yes"/>
			<point x="232" y="-217"/>
			<point x="266" y="-203"/>
			<point x="294" y="-181" type="curve"/>
			<point x="272" y="-132" type="line"/>
			<point x="258" y="-140"/>
			<point x="248" y="-145"/>
			<point x="231" y="-145" type="curve" smooth="yes"/>
			<point x="210" y="-145"/>
			<point x="194" y="-132"/>
			<point x="194" y="-109" type="curve" smooth="yes"/>
			<point x="194" y="-69"/>
			<point x="223" y="-30"/>
			<point x="299" y="-6" type="curve" smooth="yes"/>
			<point x="339" y="6"/>
			<point x="363" y="16"/>
			<point x="398" y="42" type="curve"/>
			<point x="360" y="108" type="line"/>
			<point x="332" y="88"/>
			<point x="296" y="74"/>
			<point x="258" y="74" type="curve" smooth="yes"/>
			<point x="186" y="74"/>
			<point x="140" y="102"/>
			<point x="140" y="214" type="curve" smooth="yes"/>
			<point x="140" y="348"/>
			<point x="228" y="418"/>
			<point x="288" y="418" type="curve" smooth="yes"/>
			<point x="348" y="418"/>
			<point x="368" y="376"/>
			<point x="368" y="328" type="curve" smooth="yes"/>
			<point x="368" y="314"/>
			<point x="368" y="308"/>
			<point x="364" y="294" type="curve"/>
			<point x="120" y="294" type="line"/>
			<point x="111" y="214" type="line"/>
			<point x="438" y="214" type="line"/>
			<point x="448" y="240"/>
			<point x="458" y="278"/>
			<point x="458" y="322" type="curve" smooth="yes"/>
			<point x="458" y="424"/>
			<point x="416" y="503"/>
			<point x="300" y="503" type="curve" smooth="yes"/>
			<point x="172" y="503"/>
			<point x="33" y="379"/>
			<point x="33" y="196" type="curve" smooth="yes"/>
			<point x="33" y="64"/>
			<point x="112" y="-12"/>
			<point x="236" y="-12" type="curve"/>
			<point x="214" y="1" type="line"/>
			<point x="156" y="-27"/>
			<point x="106" y="-83"/>
			<point x="106" y="-139" type="curve" smooth="yes"/>
			<point x="106" y="-190"/>
			<point x="142" y="-217"/>
		</contour>
	</outline>
	<anchor name="aboveLC" x="312" y="514"/>
	<anchor name="belowLC" x="194" y="-198"/>
</glyph>
<glyph name="jcrossedtail.x" format="2">
	<advance width="316"/>
	<outline>
		<contour>
			<point x="186" y="-246" type="curve"/>
			<point x="264" y="-218" type="line"/>
			<point x="218" y="-40"/>
			<point x="116" y="40"/>
			<point x="26" y="40" type="curve" smooth="yes"/>
			<point x="-68" y="40"/>
			<point x="-116" y="-20"/>
			<point x="-116" y="-90" type="curve" smooth="yes"/>
			<point x="-116" y="-158"/>
			<point x="-68" y="-205"/>
			<point x="12" y="-205" type="curve" smooth="yes"/>
			<point x="123" y="-205"/>
			<point x="186" y="-116"/>
			<point x="208" y="-4" type="curve" smooth="yes"/>
			<point x="306" y="492" type="line"/>
			<point x="200" y="492" type="line"/>
			<point x="98" y="-16" type="line" smooth="yes"/>
			<point x="86" y="-74"/>
			<point x="62" y="-116"/>
			<point x="12" y="-116" type="curve" smooth="yes"/>
			<point x="-12" y="-116"/>
			<point x="-30" y="-102"/>
			<point x="-30" y="-80" type="curve" smooth="yes"/>
			<point x="-30" y="-56"/>
			<point x="-14" y="-36"/>
			<point x="20" y="-36" type="curve" smooth="yes"/>
			<point x="82" y="-36"/>
			<point x="150" y="-108"/>
		</contour>
	</outline>
	<anchor name="aboveLC" x="258" y="514"/>
	<anchor name="belowLC" x="20" y="-198"/>
</glyph>
